<svg xmlns="http://www.w3.org/2000/svg" viewBox="0 0 24 24" width="24" height="24" fill="none">
  <path d="M9 21.5a1.8 1.8 0 0 1-1.8-1.8v-7.4a3 3 0 0 1 3-3h2.6a1.8 1.8 0 0 1 1.8 1.8v8.6a1.8 1.8 0 0 1-1.8 1.8H9Z" fill="currentColor" fill-opacity="0.15"/>
  <path d="M9 21.5a1.8 1.8 0 0 1-1.8-1.8v-7.4a3 3 0 0 1 3-3h2.6a1.8 1.8 0 0 1 1.8 1.8v8.6a1.8 1.8 0 0 1-1.8 1.8H9Z" stroke="currentColor" stroke-width="1.6" stroke-linejoin="round"/>
  <path d="M12.8 9.3V6.4a1.5 1.5 0 0 0-1.5-1.5H9.2" stroke="currentColor" stroke-width="1.6" stroke-linecap="round" stroke-linejoin="round"/>
  <path d="M6.4 4.9h1.3M4.7 7.2h1.3M5 2.6h1.1" stroke="currentColor" stroke-width="1.4" stroke-linecap="round" opacity="0.7"/>
</svg>
