<svg xmlns="http://www.w3.org/2000/svg" viewBox="0 0 24 24" width="24" height="24" fill="none">
  <path d="M9 3.5h6v2.2l1.4 2.1c.4.6.6 1.3.6 2v9.7a2 2 0 0 1-2 2H9a2 2 0 0 1-2-2v-9.7c0-.7.2-1.4.6-2L9 5.7V3.5Z" fill="currentColor" fill-opacity="0.15"/>
  <path d="M9 3.5h6v2.2l1.4 2.1c.4.6.6 1.3.6 2v9.7a2 2 0 0 1-2 2H9a2 2 0 0 1-2-2v-9.7c0-.7.2-1.4.6-2L9 5.7V3.5Z" stroke="currentColor" stroke-width="1.6" stroke-linejoin="round"/>
  <path d="M7.4 13.2h9.2" stroke="currentColor" stroke-width="1.6"/>
  <path d="M8.5 3.5h7" stroke="currentColor" stroke-width="1.6" stroke-linecap="round"/>
</svg>
